<?xml version="1.0" encoding="UTF-8" standalone="no"?>
<!-- Created with Inkscape (http://www.inkscape.org/) -->

<svg
   xmlns:dc="http://purl.org/dc/elements/1.1/"
   xmlns:cc="http://creativecommons.org/ns#"
   xmlns:rdf="http://www.w3.org/1999/02/22-rdf-syntax-ns#"
   xmlns:svg="http://www.w3.org/2000/svg"
   xmlns="http://www.w3.org/2000/svg"
   xmlns:xlink="http://www.w3.org/1999/xlink"
   xmlns:sodipodi="http://sodipodi.sourceforge.net/DTD/sodipodi-0.dtd"
   xmlns:inkscape="http://www.inkscape.org/namespaces/inkscape"
   width="600"
   height="400"
   viewBox="0 0 158.74999 105.83334"
   version="1.1"
   id="svg8"
   sodipodi:docname="comined-logos.svg"
   inkscape:version="0.92.3 (2405546, 2018-03-11)">
  <defs
     id="defs2">
    <linearGradient
       gradientUnits="userSpaceOnUse"
       y2="131.85291"
       x2="110.14919"
       y1="77.070274"
       x1="55.549179"
       id="linearGradient9521"
       xlink:href="#linearGradient9515"
       inkscape:collect="always" />
    <linearGradient
       id="linearGradient9515"
       inkscape:collect="always">
      <stop
         id="stop9517"
         offset="0"
         style="stop-color:#387eb8;stop-opacity:1" />
      <stop
         id="stop9519"
         offset="1"
         style="stop-color:#366994;stop-opacity:1" />
    </linearGradient>
    <linearGradient
       gradientUnits="userSpaceOnUse"
       y2="168.1012"
       x2="147.77737"
       y1="111.92053"
       x1="89.136749"
       id="linearGradient11307"
       xlink:href="#linearGradient11301"
       inkscape:collect="always" />
    <linearGradient
       id="linearGradient11301"
       inkscape:collect="always">
      <stop
         id="stop11303"
         offset="0"
         style="stop-color:#ffe052;stop-opacity:1" />
      <stop
         id="stop11305"
         offset="1"
         style="stop-color:#ffc331;stop-opacity:1" />
    </linearGradient>
    <pattern
       y="0"
       x="0"
       height="6"
       width="6"
       patternUnits="userSpaceOnUse"
       id="EMFhbasepattern" />
  </defs>
  <sodipodi:namedview
     id="base"
     pagecolor="#ffffff"
     bordercolor="#666666"
     borderopacity="1.0"
     inkscape:pageopacity="0.0"
     inkscape:pageshadow="2"
     inkscape:zoom="2.125"
     inkscape:cx="300.07841"
     inkscape:cy="200.41395"
     inkscape:document-units="mm"
     inkscape:current-layer="layer1"
     showgrid="false"
     units="px"
     inkscape:window-width="1920"
     inkscape:window-height="1017"
     inkscape:window-x="-8"
     inkscape:window-y="-8"
     inkscape:window-maximized="1" />
  <metadata
     id="metadata5">
    <rdf:RDF>
      <cc:Work
         rdf:about="">
        <dc:format>image/svg+xml</dc:format>
        <dc:type
           rdf:resource="http://purl.org/dc/dcmitype/StillImage" />
        <dc:title></dc:title>
      </cc:Work>
    </rdf:RDF>
  </metadata>
  <g
     inkscape:label="Layer 1"
     inkscape:groupmode="layer"
     id="layer1"
     transform="translate(0,-191.16665)">
    <path
       style="stroke-width:0.4550235"
       inkscape:connector-curvature="0"
       id="path3"
       d="m 142.54965,217.04071 -1.99939,-1.23765 c -0.0169,-0.19474 -0.036,-0.38904 -0.0569,-0.58242 l 1.71818,-1.60258 c 0.17474,-0.16289 0.253,-0.40405 0.20568,-0.63748 -0.046,-0.23433 -0.21022,-0.42726 -0.43364,-0.51053 l -2.19642,-0.82132 c -0.0551,-0.19019 -0.11285,-0.37903 -0.172,-0.56695 l 1.37009,-1.90289 c 0.13969,-0.19337 0.16836,-0.44501 0.0773,-0.66569 -0.091,-0.21977 -0.28986,-0.37722 -0.5251,-0.41589 l -2.31609,-0.37676 c -0.0901,-0.17563 -0.18383,-0.34855 -0.27848,-0.52008 l 0.9733,-2.13633 c 0.0997,-0.21749 0.0792,-0.47048 -0.0537,-0.66797 -0.13241,-0.19838 -0.35674,-0.3144 -0.59608,-0.30531 l -2.35067,0.0819 c -0.1215,-0.15198 -0.24527,-0.30258 -0.37131,-0.45046 l 0.54012,-2.28966 c 0.0546,-0.23252 -0.0141,-0.47596 -0.18338,-0.64477 -0.1679,-0.16835 -0.4118,-0.23797 -0.64432,-0.18337 l -2.28924,0.53966 c -0.14834,-0.12558 -0.29895,-0.24981 -0.45139,-0.3713 l 0.0824,-2.35063 c 0.009,-0.23798 -0.10693,-0.46412 -0.30532,-0.59607 -0.19885,-0.13288 -0.45048,-0.15289 -0.66753,-0.0542 l -2.1359,0.97374 c -0.17245,-0.0947 -0.34536,-0.18837 -0.52009,-0.27892 l -0.37768,-2.31651 c -0.0382,-0.23479 -0.19566,-0.43409 -0.41589,-0.52509 -0.21978,-0.0914 -0.47186,-0.0619 -0.66525,0.0773 l -1.90429,1.37006 c -0.18747,-0.0596 -0.37585,-0.11697 -0.56606,-0.17153 l -0.82132,-2.19684 c -0.0833,-0.22387 -0.2762,-0.38814 -0.51054,-0.43454 -0.23388,-0.046 -0.47459,0.0319 -0.63704,0.20567 l -1.60261,1.71952 c -0.19338,-0.0214 -0.38813,-0.041 -0.58243,-0.0568 l -1.23768,-1.99982 c -0.12512,-0.20247 -0.34673,-0.32579 -0.58516,-0.32579 -0.23844,0 -0.46003,0.1233 -0.58471,0.32579 l -1.23768,1.99982 c -0.19475,0.016 -0.3895,0.0354 -0.58289,0.0568 l -1.60306,-1.71952 c -0.16244,-0.17383 -0.40361,-0.25163 -0.63704,-0.20567 -0.23434,0.0468 -0.42727,0.21067 -0.51054,0.43454 l -0.82132,2.19684 c -0.1902,0.0546 -0.37859,0.11241 -0.56651,0.17153 l -1.90384,-1.37006 c -0.19338,-0.13969 -0.44547,-0.16926 -0.6657,-0.0773 -0.21978,0.091 -0.37768,0.2903 -0.4159,0.52509 l -0.37767,2.31651 c -0.17473,0.0905 -0.34764,0.18382 -0.5201,0.27892 l -2.1359,-0.97374 c -0.21704,-0.0993 -0.47004,-0.0787 -0.66752,0.0542 -0.19839,0.13195 -0.31443,0.35809 -0.30532,0.59607 l 0.0819,2.35063 c -0.15198,0.12153 -0.3026,0.24572 -0.45139,0.3713 l -2.28925,-0.53966 c -0.23252,-0.0542 -0.47641,0.015 -0.64477,0.18337 -0.16927,0.16881 -0.23798,0.41225 -0.18338,0.64477 l 0.53921,2.28966 c -0.12513,0.14834 -0.2489,0.29848 -0.37039,0.45046 l -2.350673,-0.0819 c -0.237069,-0.006 -0.463672,0.10697 -0.596085,0.30531 -0.132869,0.19749 -0.15289,0.45048 -0.05414,0.66797 l 0.973758,2.13633 c -0.0946,0.17153 -0.188382,0.34445 -0.278932,0.52008 l -2.31609,0.37676 c -0.235249,0.0383 -0.433641,0.19567 -0.525102,0.41589 -0.09101,0.22068 -0.06142,0.47232 0.07735,0.66569 l 1.370088,1.90289 c -0.05961,0.18792 -0.117392,0.37676 -0.172,0.56695 l -2.196873,0.82132 c -0.222964,0.0833 -0.387228,0.2762 -0.433642,0.51053 -0.04641,0.23387 0.0314,0.47459 0.205674,0.63748 l 1.718639,1.60258 c -0.02138,0.19338 -0.0405,0.38814 -0.05688,0.58242 l -1.999391,1.23765 c -0.202488,0.12507 -0.325801,0.34627 -0.325801,0.58517 0,0.23888 0.123317,0.46001 0.3258,0.58469 l 1.999391,1.23765 c 0.01638,0.19476 0.0355,0.38905 0.05688,0.58244 l -1.718638,1.60303 c -0.174277,0.16244 -0.252086,0.4036 -0.205674,0.63703 0.04641,0.23433 0.210678,0.4268 0.433642,0.51052 l 2.196872,0.82131 c 0.0546,0.1902 0.112392,0.37903 0.172001,0.56696 l -1.370087,1.90334 c -0.139239,0.19385 -0.168815,0.44546 -0.07735,0.66524 0.09146,0.22069 0.290306,0.37812 0.525556,0.41589 l 2.315635,0.37676 c 0.09055,0.17564 0.183372,0.34854 0.278932,0.521 l -0.973758,2.1354 c -0.0992,0.21704 -0.07872,0.46959 0.05414,0.66797 0.132867,0.19884 0.359016,0.31488 0.596085,0.30532 l 2.349763,-0.0824 c 0.1224,0.15288 0.24571,0.30259 0.3713,0.45137 l -0.53921,2.29012 c -0.0546,0.23206 0.0141,0.47459 0.18338,0.6434 0.1679,0.16972 0.41225,0.23752 0.64477,0.18293 l 2.28925,-0.53921 c 0.14879,0.12647 0.29941,0.24936 0.45138,0.37039 l -0.0819,2.35108 c -0.009,0.23797 0.10694,0.46366 0.30533,0.59653 0.19748,0.13241 0.45048,0.15243 0.66752,0.0532 l 2.1359,-0.97329 c 0.172,0.0956 0.34491,0.18838 0.5201,0.27894 l 0.37767,2.31514 c 0.0382,0.23568 0.19566,0.43498 0.4159,0.52553 0.21977,0.0914 0.47231,0.0619 0.6657,-0.0768 l 1.90293,-1.37098 c 0.18792,0.0597 0.37676,0.11786 0.56696,0.17246 l 0.82133,2.19593 c 0.0833,0.22295 0.2762,0.38812 0.51054,0.43363 0.23388,0.0474 0.47459,-0.031 0.63704,-0.20568 l 1.60306,-1.7186 c 0.19338,0.0223 0.38814,0.041 0.58289,0.0582 l 1.23767,1.99936 c 0.12469,0.20157 0.34628,0.3258 0.58471,0.3258 0.23844,0 0.46004,-0.12381 0.58517,-0.3258 l 1.23767,-1.99936 c 0.19476,-0.0172 0.38905,-0.0359 0.58244,-0.0582 l 1.60261,1.7186 c 0.16244,0.17472 0.4036,0.253 0.63703,0.20568 0.23434,-0.046 0.42727,-0.21068 0.51054,-0.43363 l 0.82133,-2.19593 c 0.1902,-0.0546 0.37904,-0.1128 0.56696,-0.17246 l 1.90338,1.37098 c 0.19339,0.13879 0.44548,0.16836 0.66525,0.0768 0.22024,-0.0905 0.37768,-0.2903 0.4159,-0.52553 l 0.37767,-2.31514 c 0.17473,-0.0905 0.34764,-0.18474 0.5201,-0.27894 l 2.1359,0.97329 c 0.21705,0.0992 0.46959,0.0791 0.66752,-0.0532 0.1984,-0.13287 0.31397,-0.3581 0.30533,-0.59653 l -0.0819,-2.35108 c 0.15198,-0.12153 0.30259,-0.24389 0.45093,-0.37039 l 2.28924,0.53921 c 0.23252,0.0546 0.47642,-0.0132 0.64432,-0.18293 0.16927,-0.16881 0.23798,-0.41134 0.18338,-0.6434 l -0.53921,-2.29012 c 0.12559,-0.14878 0.24936,-0.29849 0.37039,-0.45137 l 2.35068,0.0824 c 0.23706,0.0101 0.46367,-0.10647 0.59608,-0.30532 0.13287,-0.19838 0.15334,-0.45093 0.0537,-0.66797 l -0.9733,-2.1354 c 0.0951,-0.17246 0.18838,-0.34536 0.27848,-0.521 l 2.31609,-0.37676 c 0.2357,-0.0377 0.43409,-0.1952 0.5251,-0.41589 0.091,-0.21978 0.0623,-0.47139 -0.0773,-0.66524 l -1.37009,-1.90334 c 0.0591,-0.18793 0.11694,-0.37676 0.172,-0.56696 l 2.19642,-0.82131 c 0.22342,-0.0837 0.38814,-0.27619 0.43364,-0.51052 0.0473,-0.23389 -0.0309,-0.47459 -0.20568,-0.63703 l -1.71818,-1.60303 c 0.0209,-0.19339 0.04,-0.38814 0.0569,-0.58244 l 1.99939,-1.23765 c 0.20249,-0.12469 0.3258,-0.34627 0.3258,-0.58469 0,-0.23844 -0.12286,-0.46003 -0.32534,-0.58517 z m -13.3819,16.58592 c -0.76354,-0.16471 -1.24905,-0.91732 -1.08524,-1.68311 0.16335,-0.76489 0.91551,-1.25177 1.67859,-1.08704 0.76354,0.16335 1.24996,0.91732 1.08616,1.68175 -0.16382,0.76443 -0.91643,1.25176 -1.67951,1.0884 z m -0.67936,-4.59478 c -0.69664,-0.14925 -1.38192,0.29393 -1.53116,0.99193 l -0.70985,3.31255 c -2.1905,0.99422 -4.62308,1.54661 -7.18488,1.54661 -2.62051,0 -5.10587,-0.5797 -7.3355,-1.61623 l -0.70939,-3.31254 c -0.14925,-0.69709 -0.83452,-1.14119 -1.53071,-0.99149 l -2.92446,0.62792 c -0.54285,-0.55875 -1.04793,-1.15392 -1.51206,-1.7823 H 119.28 c 0.16108,0 0.26847,-0.0291 0.26847,-0.17564 v -5.03343 c 0,-0.14652 -0.10739,-0.17563 -0.26847,-0.17563 h -4.16168 v -3.1906 h 4.50113 c 0.41089,0 2.19687,0.11735 2.76793,2.40023 0.17883,0.7021 0.57152,2.98584 0.83999,3.71705 0.26755,0.81995 1.35689,2.45802 2.51766,2.45802 h 7.0907 c 0.0805,0 0.16654,-0.009 0.25709,-0.0254 -0.49189,0.66843 -1.03155,1.3009 -1.61262,1.89196 z m -19.68085,4.52562 c -0.76353,0.16471 -1.51524,-0.32216 -1.6795,-1.08704 -0.16336,-0.76625 0.32216,-1.5184 1.08569,-1.68311 0.76354,-0.16335 1.5157,0.32351 1.67951,1.08839 0.16335,0.76444 -0.32262,1.51795 -1.0857,1.68176 z m -5.39799,-21.88871 c 0.3167,0.71484 -0.005,1.55253 -0.7194,1.86876 -0.71393,0.31715 -1.54937,-0.005 -1.86606,-0.72075 -0.3167,-0.71529 0.005,-1.55161 0.71939,-1.86877 0.7144,-0.31668 1.54937,0.005 1.86607,0.72076 z m -1.65903,3.93274 3.04641,-1.35369 c 0.65069,-0.28894 0.94464,-1.05155 0.65569,-1.70359 l -0.62748,-1.41876 h 2.46762 v 11.12251 h -4.97846 c -0.43182,-1.51795 -0.66343,-3.12007 -0.66343,-4.77589 0,-0.63203 0.0341,-1.25677 0.0997,-1.87058 z m 13.36871,-1.08022 v -3.27842 h 5.87622 c 0.30351,0 2.14318,0.35082 2.14318,1.72635 0,1.14209 -1.41104,1.55161 -2.57136,1.55161 h -5.44804 z m 21.35535,2.9508 c 0,0.435 -0.0159,0.86544 -0.0478,1.29271 h -1.78643 c -0.17883,0 -0.25072,0.11735 -0.25072,0.29258 v 0.8204 c 0,1.93109 -1.08889,2.35108 -2.04308,2.45801 -0.90869,0.10241 -1.91612,-0.3804 -2.04034,-0.93643 -0.53602,-3.01497 -1.42924,-3.65882 -2.83983,-4.77133 1.75049,-1.11162 3.57197,-2.75151 3.57197,-4.94653 0,-2.37019 -1.62491,-3.8631 -2.73244,-4.59523 -1.55392,-1.02425 -3.27438,-1.22946 -3.73851,-1.22946 h -18.47548 c 2.50538,-2.79609 5.9008,-4.7768 9.74123,-5.49755 l 2.17776,2.28465 c 0.49234,0.51553 1.30775,0.53465 1.82284,0.0419 l 2.43667,-2.33061 c 5.10587,0.95054 9.42863,4.12884 11.9199,8.4893 l -1.66813,3.76755 c -0.28803,0.65205 0.006,1.41466 0.65615,1.7036 l 3.21158,1.42649 c 0.0555,0.57013 0.0847,1.14619 0.0847,1.72998 z m -18.46274,-19.05623 c 0.56423,-0.54055 1.45927,-0.51917 1.99939,0.046 0.53921,0.56649 0.51873,1.46243 -0.0469,2.00254 -0.56423,0.54055 -1.45927,0.51963 -1.99939,-0.0464 -0.53875,-0.56558 -0.51828,-1.46152 0.0469,-2.00208 z m 16.5539,13.32161 c 0.31625,-0.71483 1.15167,-1.03744 1.86561,-0.72029 0.71394,0.31669 1.0361,1.15392 0.7194,1.86876 -0.31624,0.71529 -1.15167,1.0379 -1.86607,0.72076 -0.71302,-0.3167 -1.03518,-1.15348 -0.71894,-1.86923 z" />
    <g
       id="g1894"
       transform="matrix(0.43130324,0,0,0.43356114,-3.5066893,217.47732)">
      <path
         inkscape:connector-curvature="0"
         style="color:#000000;display:inline;overflow:visible;visibility:visible;opacity:1;fill:url(#linearGradient9521);fill-opacity:1;fill-rule:nonzero;stroke:none;stroke-width:1;stroke-linecap:butt;stroke-linejoin:miter;stroke-miterlimit:4;stroke-dasharray:none;stroke-dashoffset:0;stroke-opacity:1;marker:none;marker-start:none;marker-mid:none;marker-end:none"
         d="M 99.75,67.46875 C 71.718268,67.468752 73.46875,79.625 73.46875,79.625 L 73.5,92.21875 h 26.75 V 96 H 62.875 c 0,0 -17.9375,-2.034276 -17.9375,26.25 -2e-6,28.28427 15.65625,27.28125 15.65625,27.28125 h 9.34375 v -13.125 c 0,0 -0.503652,-15.65625 15.40625,-15.65625 15.9099,0 26.53125,0 26.53125,0 0,0 14.90625,0.24096 14.90625,-14.40625 0,-14.647206 0,-24.21875 0,-24.21875 0,-2e-6 2.26318,-14.65625 -27.03125,-14.65625 z M 85,75.9375 c 2.661429,-2e-6 4.8125,2.151071 4.8125,4.8125 2e-6,2.661429 -2.151071,4.8125 -4.8125,4.8125 -2.661429,2e-6 -4.8125,-2.151071 -4.8125,-4.8125 -2e-6,-2.661429 2.151071,-4.8125 4.8125,-4.8125 z"
         id="path8615" />
      <path
         inkscape:connector-curvature="0"
         id="path8620"
         d="m 100.5461,177.31485 c 28.03174,0 26.28125,-12.15625 26.28125,-12.15625 l -0.0312,-12.59375 h -26.75 v -3.78125 h 37.375 c 0,0 17.9375,2.03427 17.9375,-26.25001 10e-6,-28.284267 -15.65625,-27.281247 -15.65625,-27.281247 h -9.34375 v 13.124997 c 0,0 0.50366,15.65625 -15.40625,15.65625 -15.909902,0 -26.531252,0 -26.531252,0 0,0 -14.90625,-0.24096 -14.90625,14.40626 0,14.6472 0,24.21875 0,24.21875 0,0 -2.26318,14.65625 27.031252,14.65625 z m 14.75,-8.46875 c -2.66143,0 -4.8125,-2.15107 -4.8125,-4.8125 0,-2.66143 2.15107,-4.8125 4.8125,-4.8125 2.66143,0 4.8125,2.15107 4.8125,4.8125 1e-5,2.66143 -2.15107,4.8125 -4.8125,4.8125 z"
         style="color:#000000;display:inline;overflow:visible;visibility:visible;opacity:1;fill:url(#linearGradient11307);fill-opacity:1;fill-rule:nonzero;stroke:none;stroke-width:1;stroke-linecap:butt;stroke-linejoin:miter;stroke-miterlimit:4;stroke-dasharray:none;stroke-dashoffset:0;stroke-opacity:1;marker:none;marker-start:none;marker-mid:none;marker-end:none" />
    </g>
    <path
       id="path858"
       d="m 33.440621,230.64099 c 0,0 -1.820322,1.05526 1.29269,1.4246 3.772548,0.4221 5.698394,0.35615 9.853472,-0.42211 0,0 1.09483,0.68592 2.624955,1.2795 -9.325843,3.99679 -21.105162,-0.23743 -13.771117,-2.28199 z"
       style="fill:#5382a1;fill-opacity:1;fill-rule:nonzero;stroke:none;stroke-width:0.16488528"
       inkscape:connector-curvature="0" />
    <path
       id="path860"
       d="m 32.293027,225.43065 c 0,0 -2.044563,1.50374 1.08164,1.83351 4.023171,0.40891 7.215327,0.44848 12.715859,-0.60677 0,0 0.765063,0.76506 1.965418,1.18717 -11.27807,3.29767 -23.822451,0.26381 -15.762917,-2.41391 z"
       style="fill:#5382a1;fill-opacity:1;fill-rule:nonzero;stroke:none;stroke-width:0.16488528"
       inkscape:connector-curvature="0" />
    <path
       id="path862"
       d="m 41.895875,216.57968 c 2.295187,2.65133 -0.593582,5.02566 -0.593582,5.02566 0,0 5.830302,-3.00749 3.152584,-6.78003 -2.506238,-3.50874 -4.418893,-5.26311 5.962208,-11.29126 0,0 -16.303738,4.07593 -8.52121,13.04563 z"
       style="fill:#f8981d;fill-opacity:1;fill-rule:nonzero;stroke:none;stroke-width:0.16488528"
       inkscape:connector-curvature="0" />
    <path
       id="path864"
       d="m 54.229205,234.50587 c 0,0 1.345454,1.10802 -1.477362,1.96541 -5.381815,1.62246 -22.397854,2.12371 -27.133324,0.066 -1.701604,-0.73868 1.490552,-1.76756 2.493047,-1.97861 1.042068,-0.23743 1.648841,-0.18467 1.648841,-0.18467 -1.899464,-1.33226 -12.214612,2.61177 -5.249908,3.73298 19.007836,3.08662 34.652038,-1.38503 29.718706,-3.60107 z"
       style="fill:#5382a1;fill-opacity:1;fill-rule:nonzero;stroke:none;stroke-width:0.16488528"
       inkscape:connector-curvature="0" />
    <path
       id="path866"
       d="m 34.311208,220.02245 c 0,0 -8.653117,2.05775 -3.060249,2.80963 2.34795,0.31658 7.057039,0.23743 11.449552,-0.13191 3.574684,-0.2902 7.175754,-0.93655 7.175754,-0.93655 0,0 -1.266309,0.54083 -2.17647,1.16079 -8.798213,2.30838 -25.774679,1.23993 -20.88092,-1.12121 4.128697,-2.00499 7.492333,-1.78075 7.492333,-1.78075 z"
       style="fill:#5382a1;fill-opacity:1;fill-rule:nonzero;stroke:none;stroke-width:0.16488528"
       inkscape:connector-curvature="0" />
    <path
       id="path868"
       d="m 49.836692,228.70195 c 8.930121,-4.64313 4.801425,-9.1016 1.925847,-8.49483 -0.712299,0.1451 -1.028877,0.26382 -1.028877,0.26382 0,0 0.263814,-0.40892 0.765062,-0.5804 5.698393,-2.00499 10.090907,5.90945 -1.846702,9.04885 0,0 0.1451,-0.11872 0.18467,-0.23744 z"
       style="fill:#5382a1;fill-opacity:1;fill-rule:nonzero;stroke:none;stroke-width:0.16488528"
       inkscape:connector-curvature="0" />
    <path
       id="path870"
       d="m 44.454877,193.81248 c 0,0 4.946521,4.94652 -4.695899,12.55757 -7.729766,6.10731 -1.767558,9.58966 0,13.57326 -4.524419,-4.07594 -7.835292,-7.66382 -5.606059,-11.00107 3.25811,-4.89376 12.293757,-7.26809 10.301958,-15.12976 z"
       style="fill:#f8981d;fill-opacity:1;fill-rule:nonzero;stroke:none;stroke-width:0.16488528"
       inkscape:connector-curvature="0" />
    <path
       id="path872"
       d="m 35.181796,241.2859 c 8.587162,0.55401 21.751508,-0.30338 22.068084,-4.36613 0,0 -0.606772,1.54331 -7.09661,2.77005 -7.320853,1.37184 -16.343309,1.21355 -21.698745,0.32977 0,0 1.09483,0.91016 6.727271,1.26631 z"
       style="fill:#5382a1;fill-opacity:1;fill-rule:nonzero;stroke:none;stroke-width:0.16488528"
       inkscape:connector-curvature="0" />
    <rect
       y="244.08331"
       x="79.375"
       style="fill:#f7df1e;stroke-width:0.10287209"
       width="79.375"
       height="52.916668"
       id="rect2-0" />
    <path
       inkscape:connector-curvature="0"
       d="m 138.14874,283.61352 c 1.32561,2.16445 3.05028,3.75541 6.10056,3.75541 2.56246,0 4.19937,-1.2807 4.19937,-3.05029 0,-2.12058 -1.68183,-2.87166 -4.5023,-4.10536 l -1.54604,-0.66333 c -4.46261,-1.90121 -7.42725,-4.28294 -7.42725,-9.318 0,-4.63811 3.53396,-8.16893 9.05686,-8.16893 3.93195,0 6.75868,1.36845 8.79569,4.9515 l -4.8157,3.09207 c -1.06028,-1.90121 -2.20414,-2.6502 -3.97999,-2.6502 -1.81137,0 -2.95941,1.14908 -2.95941,2.6502 0,1.85524 1.14908,2.60632 3.80242,3.75542 l 1.54604,0.66228 c 5.25443,2.25325 8.22115,4.55036 8.22115,9.71496 0,5.56783 -4.37382,8.61811 -10.24772,8.61811 -5.74332,0 -9.4538,-2.7369 -11.26936,-6.32412 z m -21.84614,0.53589 c 0.97149,1.72362 1.85525,3.18087 3.98,3.18087 2.03179,0 3.31353,-0.79496 3.31353,-3.88598 v -21.02819 h 6.18415 v 21.11175 c 0,6.40352 -3.75436,9.31802 -9.23443,9.31802 -4.9515,0 -7.81899,-2.56246 -9.27727,-5.64879 z"
       id="path4-9"
       style="stroke-width:0.10446197" />
  </g>
</svg>
