<?xml version="1.0" encoding="UTF-8" standalone="no"?>
<!-- Created with Inkscape (http://www.inkscape.org/) -->

<svg
   xmlns:dc="http://purl.org/dc/elements/1.1/"
   xmlns:cc="http://creativecommons.org/ns#"
   xmlns:rdf="http://www.w3.org/1999/02/22-rdf-syntax-ns#"
   xmlns:svg="http://www.w3.org/2000/svg"
   xmlns="http://www.w3.org/2000/svg"
   xmlns:xlink="http://www.w3.org/1999/xlink"
   xmlns:sodipodi="http://sodipodi.sourceforge.net/DTD/sodipodi-0.dtd"
   xmlns:inkscape="http://www.inkscape.org/namespaces/inkscape"
   width="600"
   height="400"
   viewBox="0 0 158.74999 105.83334"
   version="1.1"
   id="svg8"
   sodipodi:docname="combined-logos-writen-java.svg"
   inkscape:version="0.92.3 (2405546, 2018-03-11)">
  <defs
     id="defs2">
    <linearGradient
       gradientUnits="userSpaceOnUse"
       y2="131.85291"
       x2="110.14919"
       y1="77.070274"
       x1="55.549179"
       id="linearGradient9521"
       xlink:href="#linearGradient9515"
       inkscape:collect="always" />
    <linearGradient
       id="linearGradient9515"
       inkscape:collect="always">
      <stop
         id="stop9517"
         offset="0"
         style="stop-color:#387eb8;stop-opacity:1" />
      <stop
         id="stop9519"
         offset="1"
         style="stop-color:#366994;stop-opacity:1" />
    </linearGradient>
    <linearGradient
       gradientUnits="userSpaceOnUse"
       y2="168.1012"
       x2="147.77737"
       y1="111.92053"
       x1="89.136749"
       id="linearGradient11307"
       xlink:href="#linearGradient11301"
       inkscape:collect="always" />
    <linearGradient
       id="linearGradient11301"
       inkscape:collect="always">
      <stop
         id="stop11303"
         offset="0"
         style="stop-color:#ffe052;stop-opacity:1" />
      <stop
         id="stop11305"
         offset="1"
         style="stop-color:#ffc331;stop-opacity:1" />
    </linearGradient>
    <pattern
       y="0"
       x="0"
       height="6"
       width="6"
       patternUnits="userSpaceOnUse"
       id="EMFhbasepattern" />
  </defs>
  <sodipodi:namedview
     id="base"
     pagecolor="#ffffff"
     bordercolor="#666666"
     borderopacity="1.0"
     inkscape:pageopacity="0.0"
     inkscape:pageshadow="2"
     inkscape:zoom="1.0625"
     inkscape:cx="372.20841"
     inkscape:cy="13.584892"
     inkscape:document-units="mm"
     inkscape:current-layer="layer1"
     showgrid="false"
     units="px"
     inkscape:window-width="1920"
     inkscape:window-height="1017"
     inkscape:window-x="-8"
     inkscape:window-y="-8"
     inkscape:window-maximized="1" />
  <metadata
     id="metadata5">
    <rdf:RDF>
      <cc:Work
         rdf:about="">
        <dc:format>image/svg+xml</dc:format>
        <dc:type
           rdf:resource="http://purl.org/dc/dcmitype/StillImage" />
        <dc:title></dc:title>
      </cc:Work>
    </rdf:RDF>
  </metadata>
  <g
     inkscape:label="Layer 1"
     inkscape:groupmode="layer"
     id="layer1"
     transform="translate(0,-191.16665)">
    <path
       style="stroke-width:0.4550235"
       inkscape:connector-curvature="0"
       id="path3"
       d="m 142.54965,217.04071 -1.99939,-1.23765 c -0.0169,-0.19474 -0.036,-0.38904 -0.0569,-0.58242 l 1.71818,-1.60258 c 0.17474,-0.16289 0.253,-0.40405 0.20568,-0.63748 -0.046,-0.23433 -0.21022,-0.42726 -0.43364,-0.51053 l -2.19642,-0.82132 c -0.0551,-0.19019 -0.11285,-0.37903 -0.172,-0.56695 l 1.37009,-1.90289 c 0.13969,-0.19337 0.16836,-0.44501 0.0773,-0.66569 -0.091,-0.21977 -0.28986,-0.37722 -0.5251,-0.41589 l -2.31609,-0.37676 c -0.0901,-0.17563 -0.18383,-0.34855 -0.27848,-0.52008 l 0.9733,-2.13633 c 0.0997,-0.21749 0.0792,-0.47048 -0.0537,-0.66797 -0.13241,-0.19838 -0.35674,-0.3144 -0.59608,-0.30531 l -2.35067,0.0819 c -0.1215,-0.15198 -0.24527,-0.30258 -0.37131,-0.45046 l 0.54012,-2.28966 c 0.0546,-0.23252 -0.0141,-0.47596 -0.18338,-0.64477 -0.1679,-0.16835 -0.4118,-0.23797 -0.64432,-0.18337 l -2.28924,0.53966 c -0.14834,-0.12558 -0.29895,-0.24981 -0.45139,-0.3713 l 0.0824,-2.35063 c 0.009,-0.23798 -0.10693,-0.46412 -0.30532,-0.59607 -0.19885,-0.13288 -0.45048,-0.15289 -0.66753,-0.0542 l -2.1359,0.97374 c -0.17245,-0.0947 -0.34536,-0.18837 -0.52009,-0.27892 l -0.37768,-2.31651 c -0.0382,-0.23479 -0.19566,-0.43409 -0.41589,-0.52509 -0.21978,-0.0914 -0.47186,-0.0619 -0.66525,0.0773 l -1.90429,1.37006 c -0.18747,-0.0596 -0.37585,-0.11697 -0.56606,-0.17153 l -0.82132,-2.19684 c -0.0833,-0.22387 -0.2762,-0.38814 -0.51054,-0.43454 -0.23388,-0.046 -0.47459,0.0319 -0.63704,0.20567 l -1.60261,1.71952 c -0.19338,-0.0214 -0.38813,-0.041 -0.58243,-0.0568 l -1.23768,-1.99982 c -0.12512,-0.20247 -0.34673,-0.32579 -0.58516,-0.32579 -0.23844,0 -0.46003,0.1233 -0.58471,0.32579 l -1.23768,1.99982 c -0.19475,0.016 -0.3895,0.0354 -0.58289,0.0568 l -1.60306,-1.71952 c -0.16244,-0.17383 -0.40361,-0.25163 -0.63704,-0.20567 -0.23434,0.0468 -0.42727,0.21067 -0.51054,0.43454 l -0.82132,2.19684 c -0.1902,0.0546 -0.37859,0.11241 -0.56651,0.17153 l -1.90384,-1.37006 c -0.19338,-0.13969 -0.44547,-0.16926 -0.6657,-0.0773 -0.21978,0.091 -0.37768,0.2903 -0.4159,0.52509 l -0.37767,2.31651 c -0.17473,0.0905 -0.34764,0.18382 -0.5201,0.27892 l -2.1359,-0.97374 c -0.21704,-0.0993 -0.47004,-0.0787 -0.66752,0.0542 -0.19839,0.13195 -0.31443,0.35809 -0.30532,0.59607 l 0.0819,2.35063 c -0.15198,0.12153 -0.3026,0.24572 -0.45139,0.3713 l -2.28925,-0.53966 c -0.23252,-0.0542 -0.47641,0.015 -0.64477,0.18337 -0.16927,0.16881 -0.23798,0.41225 -0.18338,0.64477 l 0.53921,2.28966 c -0.12513,0.14834 -0.2489,0.29848 -0.37039,0.45046 l -2.350673,-0.0819 c -0.237069,-0.006 -0.463672,0.10697 -0.596085,0.30531 -0.132869,0.19749 -0.15289,0.45048 -0.05414,0.66797 l 0.973758,2.13633 c -0.0946,0.17153 -0.188382,0.34445 -0.278932,0.52008 l -2.31609,0.37676 c -0.235249,0.0383 -0.433641,0.19567 -0.525102,0.41589 -0.09101,0.22068 -0.06142,0.47232 0.07735,0.66569 l 1.370088,1.90289 c -0.05961,0.18792 -0.117392,0.37676 -0.172,0.56695 l -2.196873,0.82132 c -0.222964,0.0833 -0.387228,0.2762 -0.433642,0.51053 -0.04641,0.23387 0.0314,0.47459 0.205674,0.63748 l 1.718639,1.60258 c -0.02138,0.19338 -0.0405,0.38814 -0.05688,0.58242 l -1.999391,1.23765 c -0.202488,0.12507 -0.325801,0.34627 -0.325801,0.58517 0,0.23888 0.123317,0.46001 0.3258,0.58469 l 1.999391,1.23765 c 0.01638,0.19476 0.0355,0.38905 0.05688,0.58244 l -1.718638,1.60303 c -0.174277,0.16244 -0.252086,0.4036 -0.205674,0.63703 0.04641,0.23433 0.210678,0.4268 0.433642,0.51052 l 2.196872,0.82131 c 0.0546,0.1902 0.112392,0.37903 0.172001,0.56696 l -1.370087,1.90334 c -0.139239,0.19385 -0.168815,0.44546 -0.07735,0.66524 0.09146,0.22069 0.290306,0.37812 0.525556,0.41589 l 2.315635,0.37676 c 0.09055,0.17564 0.183372,0.34854 0.278932,0.521 l -0.973758,2.1354 c -0.0992,0.21704 -0.07872,0.46959 0.05414,0.66797 0.132867,0.19884 0.359016,0.31488 0.596085,0.30532 l 2.349763,-0.0824 c 0.1224,0.15288 0.24571,0.30259 0.3713,0.45137 l -0.53921,2.29012 c -0.0546,0.23206 0.0141,0.47459 0.18338,0.6434 0.1679,0.16972 0.41225,0.23752 0.64477,0.18293 l 2.28925,-0.53921 c 0.14879,0.12647 0.29941,0.24936 0.45138,0.37039 l -0.0819,2.35108 c -0.009,0.23797 0.10694,0.46366 0.30533,0.59653 0.19748,0.13241 0.45048,0.15243 0.66752,0.0532 l 2.1359,-0.97329 c 0.172,0.0956 0.34491,0.18838 0.5201,0.27894 l 0.37767,2.31514 c 0.0382,0.23568 0.19566,0.43498 0.4159,0.52553 0.21977,0.0914 0.47231,0.0619 0.6657,-0.0768 l 1.90293,-1.37098 c 0.18792,0.0597 0.37676,0.11786 0.56696,0.17246 l 0.82133,2.19593 c 0.0833,0.22295 0.2762,0.38812 0.51054,0.43363 0.23388,0.0474 0.47459,-0.031 0.63704,-0.20568 l 1.60306,-1.7186 c 0.19338,0.0223 0.38814,0.041 0.58289,0.0582 l 1.23767,1.99936 c 0.12469,0.20157 0.34628,0.3258 0.58471,0.3258 0.23844,0 0.46004,-0.12381 0.58517,-0.3258 l 1.23767,-1.99936 c 0.19476,-0.0172 0.38905,-0.0359 0.58244,-0.0582 l 1.60261,1.7186 c 0.16244,0.17472 0.4036,0.253 0.63703,0.20568 0.23434,-0.046 0.42727,-0.21068 0.51054,-0.43363 l 0.82133,-2.19593 c 0.1902,-0.0546 0.37904,-0.1128 0.56696,-0.17246 l 1.90338,1.37098 c 0.19339,0.13879 0.44548,0.16836 0.66525,0.0768 0.22024,-0.0905 0.37768,-0.2903 0.4159,-0.52553 l 0.37767,-2.31514 c 0.17473,-0.0905 0.34764,-0.18474 0.5201,-0.27894 l 2.1359,0.97329 c 0.21705,0.0992 0.46959,0.0791 0.66752,-0.0532 0.1984,-0.13287 0.31397,-0.3581 0.30533,-0.59653 l -0.0819,-2.35108 c 0.15198,-0.12153 0.30259,-0.24389 0.45093,-0.37039 l 2.28924,0.53921 c 0.23252,0.0546 0.47642,-0.0132 0.64432,-0.18293 0.16927,-0.16881 0.23798,-0.41134 0.18338,-0.6434 l -0.53921,-2.29012 c 0.12559,-0.14878 0.24936,-0.29849 0.37039,-0.45137 l 2.35068,0.0824 c 0.23706,0.0101 0.46367,-0.10647 0.59608,-0.30532 0.13287,-0.19838 0.15334,-0.45093 0.0537,-0.66797 l -0.9733,-2.1354 c 0.0951,-0.17246 0.18838,-0.34536 0.27848,-0.521 l 2.31609,-0.37676 c 0.2357,-0.0377 0.43409,-0.1952 0.5251,-0.41589 0.091,-0.21978 0.0623,-0.47139 -0.0773,-0.66524 l -1.37009,-1.90334 c 0.0591,-0.18793 0.11694,-0.37676 0.172,-0.56696 l 2.19642,-0.82131 c 0.22342,-0.0837 0.38814,-0.27619 0.43364,-0.51052 0.0473,-0.23389 -0.0309,-0.47459 -0.20568,-0.63703 l -1.71818,-1.60303 c 0.0209,-0.19339 0.04,-0.38814 0.0569,-0.58244 l 1.99939,-1.23765 c 0.20249,-0.12469 0.3258,-0.34627 0.3258,-0.58469 0,-0.23844 -0.12286,-0.46003 -0.32534,-0.58517 z m -13.3819,16.58592 c -0.76354,-0.16471 -1.24905,-0.91732 -1.08524,-1.68311 0.16335,-0.76489 0.91551,-1.25177 1.67859,-1.08704 0.76354,0.16335 1.24996,0.91732 1.08616,1.68175 -0.16382,0.76443 -0.91643,1.25176 -1.67951,1.0884 z m -0.67936,-4.59478 c -0.69664,-0.14925 -1.38192,0.29393 -1.53116,0.99193 l -0.70985,3.31255 c -2.1905,0.99422 -4.62308,1.54661 -7.18488,1.54661 -2.62051,0 -5.10587,-0.5797 -7.3355,-1.61623 l -0.70939,-3.31254 c -0.14925,-0.69709 -0.83452,-1.14119 -1.53071,-0.99149 l -2.92446,0.62792 c -0.54285,-0.55875 -1.04793,-1.15392 -1.51206,-1.7823 H 119.28 c 0.16108,0 0.26847,-0.0291 0.26847,-0.17564 v -5.03343 c 0,-0.14652 -0.10739,-0.17563 -0.26847,-0.17563 h -4.16168 v -3.1906 h 4.50113 c 0.41089,0 2.19687,0.11735 2.76793,2.40023 0.17883,0.7021 0.57152,2.98584 0.83999,3.71705 0.26755,0.81995 1.35689,2.45802 2.51766,2.45802 h 7.0907 c 0.0805,0 0.16654,-0.009 0.25709,-0.0254 -0.49189,0.66843 -1.03155,1.3009 -1.61262,1.89196 z m -19.68085,4.52562 c -0.76353,0.16471 -1.51524,-0.32216 -1.6795,-1.08704 -0.16336,-0.76625 0.32216,-1.5184 1.08569,-1.68311 0.76354,-0.16335 1.5157,0.32351 1.67951,1.08839 0.16335,0.76444 -0.32262,1.51795 -1.0857,1.68176 z m -5.39799,-21.88871 c 0.3167,0.71484 -0.005,1.55253 -0.7194,1.86876 -0.71393,0.31715 -1.54937,-0.005 -1.86606,-0.72075 -0.3167,-0.71529 0.005,-1.55161 0.71939,-1.86877 0.7144,-0.31668 1.54937,0.005 1.86607,0.72076 z m -1.65903,3.93274 3.04641,-1.35369 c 0.65069,-0.28894 0.94464,-1.05155 0.65569,-1.70359 l -0.62748,-1.41876 h 2.46762 v 11.12251 h -4.97846 c -0.43182,-1.51795 -0.66343,-3.12007 -0.66343,-4.77589 0,-0.63203 0.0341,-1.25677 0.0997,-1.87058 z m 13.36871,-1.08022 v -3.27842 h 5.87622 c 0.30351,0 2.14318,0.35082 2.14318,1.72635 0,1.14209 -1.41104,1.55161 -2.57136,1.55161 h -5.44804 z m 21.35535,2.9508 c 0,0.435 -0.0159,0.86544 -0.0478,1.29271 h -1.78643 c -0.17883,0 -0.25072,0.11735 -0.25072,0.29258 v 0.8204 c 0,1.93109 -1.08889,2.35108 -2.04308,2.45801 -0.90869,0.10241 -1.91612,-0.3804 -2.04034,-0.93643 -0.53602,-3.01497 -1.42924,-3.65882 -2.83983,-4.77133 1.75049,-1.11162 3.57197,-2.75151 3.57197,-4.94653 0,-2.37019 -1.62491,-3.8631 -2.73244,-4.59523 -1.55392,-1.02425 -3.27438,-1.22946 -3.73851,-1.22946 h -18.47548 c 2.50538,-2.79609 5.9008,-4.7768 9.74123,-5.49755 l 2.17776,2.28465 c 0.49234,0.51553 1.30775,0.53465 1.82284,0.0419 l 2.43667,-2.33061 c 5.10587,0.95054 9.42863,4.12884 11.9199,8.4893 l -1.66813,3.76755 c -0.28803,0.65205 0.006,1.41466 0.65615,1.7036 l 3.21158,1.42649 c 0.0555,0.57013 0.0847,1.14619 0.0847,1.72998 z m -18.46274,-19.05623 c 0.56423,-0.54055 1.45927,-0.51917 1.99939,0.046 0.53921,0.56649 0.51873,1.46243 -0.0469,2.00254 -0.56423,0.54055 -1.45927,0.51963 -1.99939,-0.0464 -0.53875,-0.56558 -0.51828,-1.46152 0.0469,-2.00208 z m 16.5539,13.32161 c 0.31625,-0.71483 1.15167,-1.03744 1.86561,-0.72029 0.71394,0.31669 1.0361,1.15392 0.7194,1.86876 -0.31624,0.71529 -1.15167,1.0379 -1.86607,0.72076 -0.71302,-0.3167 -1.03518,-1.15348 -0.71894,-1.86923 z" />
    <g
       id="g1894"
       transform="matrix(0.43130324,0,0,0.43356114,-3.5066893,217.47732)">
      <path
         inkscape:connector-curvature="0"
         style="color:#000000;display:inline;overflow:visible;visibility:visible;opacity:1;fill:url(#linearGradient9521);fill-opacity:1;fill-rule:nonzero;stroke:none;stroke-width:1;stroke-linecap:butt;stroke-linejoin:miter;stroke-miterlimit:4;stroke-dasharray:none;stroke-dashoffset:0;stroke-opacity:1;marker:none;marker-start:none;marker-mid:none;marker-end:none"
         d="M 99.75,67.46875 C 71.718268,67.468752 73.46875,79.625 73.46875,79.625 L 73.5,92.21875 h 26.75 V 96 H 62.875 c 0,0 -17.9375,-2.034276 -17.9375,26.25 -2e-6,28.28427 15.65625,27.28125 15.65625,27.28125 h 9.34375 v -13.125 c 0,0 -0.503652,-15.65625 15.40625,-15.65625 15.9099,0 26.53125,0 26.53125,0 0,0 14.90625,0.24096 14.90625,-14.40625 0,-14.647206 0,-24.21875 0,-24.21875 0,-2e-6 2.26318,-14.65625 -27.03125,-14.65625 z M 85,75.9375 c 2.661429,-2e-6 4.8125,2.151071 4.8125,4.8125 2e-6,2.661429 -2.151071,4.8125 -4.8125,4.8125 -2.661429,2e-6 -4.8125,-2.151071 -4.8125,-4.8125 -2e-6,-2.661429 2.151071,-4.8125 4.8125,-4.8125 z"
         id="path8615" />
      <path
         inkscape:connector-curvature="0"
         id="path8620"
         d="m 100.5461,177.31485 c 28.03174,0 26.28125,-12.15625 26.28125,-12.15625 l -0.0312,-12.59375 h -26.75 v -3.78125 h 37.375 c 0,0 17.9375,2.03427 17.9375,-26.25001 10e-6,-28.284267 -15.65625,-27.281247 -15.65625,-27.281247 h -9.34375 v 13.124997 c 0,0 0.50366,15.65625 -15.40625,15.65625 -15.909902,0 -26.531252,0 -26.531252,0 0,0 -14.90625,-0.24096 -14.90625,14.40626 0,14.6472 0,24.21875 0,24.21875 0,0 -2.26318,14.65625 27.031252,14.65625 z m 14.75,-8.46875 c -2.66143,0 -4.8125,-2.15107 -4.8125,-4.8125 0,-2.66143 2.15107,-4.8125 4.8125,-4.8125 2.66143,0 4.8125,2.15107 4.8125,4.8125 1e-5,2.66143 -2.15107,4.8125 -4.8125,4.8125 z"
         style="color:#000000;display:inline;overflow:visible;visibility:visible;opacity:1;fill:url(#linearGradient11307);fill-opacity:1;fill-rule:nonzero;stroke:none;stroke-width:1;stroke-linecap:butt;stroke-linejoin:miter;stroke-miterlimit:4;stroke-dasharray:none;stroke-dashoffset:0;stroke-opacity:1;marker:none;marker-start:none;marker-mid:none;marker-end:none" />
    </g>
    <path
       inkscape:connector-curvature="0"
       style="fill:#5382a1;stroke-width:0.12294341"
       d="m 13.480333,230.0937 c 0,0 -1.743096,1.01367 1.2405,1.35669 3.614553,0.41235 5.461894,0.35321 9.445149,-0.40068 0,0 1.047232,0.65664 2.509771,1.22538 -8.929402,3.82698 -20.2089818,-0.22166 -13.19542,-2.18139"
       id="path4" />
    <path
       inkscape:connector-curvature="0"
       style="fill:#5382a1;stroke-width:0.12294341"
       d="m 12.389217,225.09974 c 0,0 -1.95506,1.44717 1.030758,1.756 3.86116,0.39834 6.910411,0.43092 12.186776,-0.58509 0,0 0.729789,0.73987 1.877346,1.14448 -10.796175,3.15695 -22.8211547,0.24897 -15.09488,-2.31539"
       id="path6" />
    <path
       inkscape:connector-curvature="0"
       style="fill:#f8981d;stroke-width:0.12294341"
       d="m 21.587722,216.62833 c 2.200201,2.53312 -0.578079,4.81261 -0.578079,4.81261 0,0 5.586682,-2.88401 3.020969,-6.49546 -2.396285,-3.36791 -4.233932,-5.0413 5.714293,-10.81092 0,0 -15.615426,3.90002 -8.157183,12.49377"
       id="path8" />
    <path
       inkscape:connector-curvature="0"
       style="fill:#5382a1;stroke-width:0.12294341"
       d="m 33.39756,233.78754 c 0,0 1.289929,1.06284 -1.420608,1.88509 -5.154164,1.56137 -21.452181,2.03286 -25.9796972,0.0623 -1.6275327,-0.70803 1.4245438,-1.6906 2.384609,-1.89678 1.0012494,-0.21711 1.5734286,-0.17666 1.5734286,-0.17666 -1.8099777,-1.27504 -11.6989468,2.50361 -5.0231027,3.58576 18.2059743,2.95248 33.1877533,-1.3295 28.4653703,-3.45963"
       id="path10" />
    <path
       inkscape:connector-curvature="0"
       style="fill:#5382a1;stroke-width:0.12294341"
       d="m 14.318561,219.92542 c 0,0 -8.2902075,1.96906 -2.935774,2.6841 2.260817,0.30269 6.767683,0.23421 10.965708,-0.11753 3.430874,-0.28942 6.875865,-0.90475 6.875865,-0.90475 0,0 -1.209755,0.51809 -2.084992,1.11571 -8.418557,2.2141 -24.6816641,1.18408 -19.9997274,-1.08066 3.9595124,-1.91398 7.1789204,-1.69687 7.1789204,-1.69687"
       id="path12" />
    <path
       inkscape:connector-curvature="0"
       style="fill:#5382a1;stroke-width:0.12294341"
       d="m 29.190187,228.23812 c 8.557865,-4.44698 4.601044,-8.7205 1.839247,-8.14476 -0.67693,0.1409 -0.97877,0.26298 -0.97877,0.26298 0,0 0.251317,-0.39367 0.731274,-0.56407 5.463732,-1.92086 9.665704,5.66536 -1.763748,8.66998 0,1.2e-4 0.132402,-0.11827 0.171997,-0.22413"
       id="path14" />
    <path
       inkscape:connector-curvature="0"
       style="fill:#f8981d;stroke-width:0.12294341"
       d="m 24.030612,194.81816 c 0,0 4.739479,4.74106 -4.495182,12.03149 -7.40526,5.84817 -1.688639,9.18265 -0.0029,12.99241 -4.322574,-3.9 -7.494764,-7.33319 -5.366616,-10.52849 3.123631,-4.69043 11.777139,-6.96451 9.864862,-14.49541"
       id="path16" />
    <path
       inkscape:connector-curvature="0"
       style="fill:#5382a1;stroke-width:0.12294341"
       d="m 15.159499,240.28841 c 8.214477,0.52583 20.828733,-0.29174 21.12748,-4.17859 0,0 -0.574268,1.47347 -6.788823,2.64364 -7.011225,1.31944 -15.658574,1.16539 -20.7874237,0.31978 1.34e-4,-1.1e-4 1.0499419,0.86896 6.4487667,1.21517"
       id="path18" />
    <path
       inkscape:connector-curvature="0"
       style="fill:#5382a1;stroke-width:0.12294341"
       d="m 75.222772,223.61455 h -0.250559 v -0.14015 h 0.674468 v 0.14015 h -0.248838 v 0.69931 h -0.175071 z m 1.345248,0.0365 h -0.0039 l -0.248223,0.66292 h -0.1136 l -0.246624,-0.66292 h -0.0031 v 0.66292 h -0.164992 v -0.83946 h 0.242813 l 0.228676,0.59443 0.227937,-0.59443 h 0.241954 v 0.83946 h -0.161049 v -0.66292 z"
       id="path2" />
    <path
       inkscape:connector-curvature="0"
       style="fill:#5382a1;stroke-width:0.12294341"
       d="m 53.127964,231.49559 c -0.77492,0.67214 -1.59335,1.04944 -2.327814,1.04944 -1.048342,0 -1.614737,-0.62859 -1.614737,-1.63686 0,-1.09064 0.606851,-1.88804 3.041493,-1.88804 h 0.900933 v 2.47546 m 2.138367,2.41253 v -7.46784 c 0,-1.90771 -1.088061,-3.16652 -3.711431,-3.16652 -1.531508,0 -2.873061,0.37817 -3.963459,0.86048 l 0.314742,1.32188 c 0.858522,-0.3151 1.9698,-0.60845 3.060562,-0.60845 1.511212,0 2.161344,0.60845 2.161344,1.86641 v 0.94384 h -0.75426 c -3.671704,0 -5.328009,1.42527 -5.328009,3.56461 0,1.84625 1.09149,2.89569 3.146628,2.89569 1.321018,0 2.307154,-0.54538 3.228976,-1.34353 l 0.167332,1.13354 h 1.677575 z"
       id="path20" />
    <path
       inkscape:connector-curvature="0"
       style="fill:#5382a1;stroke-width:0.12294341"
       d="m 62.402337,233.90812 h -2.666895 l -3.209561,-10.44528 h 2.328914 l 1.99157,6.41764 0.442719,1.9301 c 1.007521,-2.79058 1.720102,-5.62172 2.076515,-8.34774 h 2.265483 c -0.606973,3.43959 -1.699204,7.21493 -3.228745,10.44528"
       id="path22" />
    <path
       inkscape:connector-curvature="0"
       style="fill:#5382a1;stroke-width:0.12294341"
       d="m 72.632842,231.49559 c -0.776389,0.67214 -1.596299,1.04944 -2.330763,1.04944 -1.046498,0 -1.614374,-0.62859 -1.614374,-1.63686 0,-1.09064 0.608325,-1.88804 3.042732,-1.88804 h 0.902405 v 2.47546 m 2.137989,2.41253 v -7.46784 c 0,-1.90771 -1.090756,-3.16652 -3.711053,-3.16652 -1.532613,0 -2.874667,0.37817 -3.964562,0.86048 l 0.314245,1.32188 c 0.858884,-0.3151 1.97226,-0.60845 3.062156,-0.60845 1.510116,0 2.161225,0.60845 2.161225,1.86641 v 0.94384 h -0.755488 c -3.672818,0 -5.328376,1.42527 -5.328376,3.56461 0,1.84625 1.090632,2.89569 3.145389,2.89569 1.321768,0 2.307528,-0.54538 3.230958,-1.34353 l 0.167941,1.13354 h 1.677565 z"
       id="path24" />
    <path
       inkscape:connector-curvature="0"
       style="fill:#5382a1;stroke-width:0.12294341"
       d="m 44.701169,235.68195 c -0.609561,0.88997 -1.594087,1.59407 -2.671938,1.9924 l -1.055719,-1.24234 c 0.820404,-0.42095 1.524018,-1.10083 1.850923,-1.73411 0.282771,-0.5632 0.39981,-1.28907 0.39981,-3.0249 v -11.92489 h 2.271746 v 11.76151 c -1.25e-4,2.32066 -0.185644,3.25812 -0.794822,4.17233"
       id="path26" />
    <rect
       y="244.08331"
       x="79.375"
       style="fill:#f7df1e;stroke-width:0.10287208"
       width="79.375"
       height="52.916668"
       id="rect2" />
    <path
       inkscape:connector-curvature="0"
       d="m 141.37989,285.42467 c 1.0659,1.74037 2.45265,3.01961 4.90529,3.01961 2.06039,0 3.37659,-1.02977 3.37659,-2.45264 0,-1.7051 -1.35231,-2.30902 -3.62017,-3.301 l -1.24312,-0.53336 c -3.58826,-1.52871 -5.97203,-3.44379 -5.97203,-7.49233 0,-3.72936 2.84155,-6.56839 7.28234,-6.56839 3.16156,0 5.43446,1.10033 7.07236,3.98135 l -3.87216,2.48625 c -0.85255,-1.52871 -1.77229,-2.13095 -3.2002,-2.13095 -1.45646,0 -2.37957,0.92394 -2.37957,2.13095 0,1.49174 0.92395,2.09566 3.05741,3.01961 l 1.24312,0.53252 c 4.22494,1.81177 6.61039,3.65881 6.61039,7.81151 0,4.47692 -3.51686,6.92956 -8.23988,6.92956 -4.61803,0 -7.60152,-2.20066 -9.06135,-5.08504 z m -17.56581,0.43089 c 0.78115,1.38592 1.49175,2.55765 3.2002,2.55765 1.6337,0 2.66431,-0.63921 2.66431,-3.12461 v -16.90814 h 4.97249 v 16.97533 c 0,5.14888 -3.01877,7.49234 -7.42513,7.49234 -3.98135,0 -6.28701,-2.06039 -7.45957,-4.54202 z"
       id="path4-4"
       style="stroke-width:0.0839947" />
  </g>
</svg>
